<svg width="256" height="256" viewBox="0 0 92 92" xmlns="http://www.w3.org/2000/svg" role="img" aria-label="Devronic Logo">
  <path fill="#1A2C4B" fill-rule="evenodd" d="M20.25,0 C13.483,0 8,5.483 8,12.25 L8,79.75 C8,86.517 13.483,92 20.25,92 L44.3,92 C65.3,92 84,77.5,84,54 C84,30.5 65.2,16.1 44.3,16.1 L36,16.1 L36,12.25 C36,5.483 30.517,0 28.75,0 L20.25,0 Z M36,24.1 L42.5,24.1 C59,24.1 76,36 76,54 C76,72 59,84 42.5,84 L20.25,84 C17.9,84 16,82.1 16,79.75 L16,12.25 C16,9.9 17.9,8 20.25,8 L28.75,8 C31.1,8 36,9.9 36,12.25 L36,24.1 Z M24,35 C24,31.686 26.686,29 30,29 C33.314,29 36,31.686 36,35 L36,41 L59,41 C61.209,41 63,42.791 63,45 C63,47.209 61.209,49 59,49 L36,49 L36,55 L54,55 C56.209,55 58,56.791 58,59 C58,61.209 56.209,63 54,63 L36,63 L36,69 C36,72.314 33.314,75 30,75 C26.686,75 24,72.314 24,69 L24,59 L24,45 L24,35 Z M30,41 C28.895,41 28,41.895 28,43 L28,51 L28,57 C28,58.105 28.895,59 30,59 C31.105,59 32,58.105 32,57 L32,51 L32,43 C32,41.895 31.105,41 30,41 Z"/>
</svg>